<svg width="320" height="1906" viewBox="0 0 320 1906" fill="none" xmlns="http://www.w3.org/2000/svg">
<mask id="mask0_5707:19680" style="mask-type:alpha" maskUnits="userSpaceOnUse" x="0" y="1610" width="321" height="296">
<rect x="320" y="1905.44" width="320" height="295" transform="rotate(-180 320 1905.44)" fill="#C4C4C4"/>
</mask>
<g mask="url(#mask0_5707:19680)">
<path d="M-49.6359 1873.89C-118.888 1929.05 -202.738 1882.16 -220 1852.1V1580.44H321.112C321.362 1583.44 322.419 1776.65 321.818 1787.47C321.068 1800.99 285.378 1836.98 194.277 1822.04C86.5801 1804.38 16.4082 1821.29 -49.6359 1873.89Z" fill="#02002D"/>
</g>
<mask id="mask1_5707:19680" style="mask-type:alpha" maskUnits="userSpaceOnUse" x="0" y="1343" width="320" height="291">
<rect y="1343.44" width="320" height="290" fill="#C4C4C4"/>
</mask>
<g mask="url(#mask1_5707:19680)">
<path d="M365.636 1374.98C434.888 1319.82 518.739 1366.72 536 1396.78L536 1668.44L-5.11163 1668.44C-5.36182 1665.43 -6.41842 1472.23 -5.81802 1461.41C-5.06753 1447.88 30.622 1411.9 121.723 1426.84C229.42 1444.5 299.592 1427.59 365.636 1374.98Z" fill="#02002D"/>
</g>
<path d="M292.908 107.454L296.23 105.173L299.249 106.566L297.687 103.631L299.775 100.185L296.453 102.466L293.434 101.072L294.996 104.008L292.908 107.454Z" fill="#B5E6FB"/>
<path d="M292.908 1291.89L296.23 1289.61L299.249 1291L297.687 1288.07L299.775 1284.62L296.453 1286.9L293.434 1285.51L294.996 1288.45L292.908 1291.89Z" fill="#B5E6FB"/>
<path d="M286.754 659.471L290.076 657.19L293.095 658.583L291.532 655.648L293.621 652.201L290.299 654.482L287.279 653.089L288.842 656.024L286.754 659.471Z" fill="#B5E6FB"/>
<path d="M16.5365 492.721L21.526 486.03L28.3766 486.744L23.352 482.033L25.1442 473.881L20.1547 480.572L13.3041 479.858L18.3287 484.569L16.5365 492.721Z" fill="white"/>
<path d="M267.531 953.863L271.167 946.35L267.374 940.601L273.871 942.887L280.278 937.537L276.642 945.05L280.435 950.799L273.938 948.514L267.531 953.863Z" fill="white"/>
<path d="M145.346 1121.44L148.799 1115.65L154.366 1115.65L149.934 1112.28L150.696 1105.58L147.242 1111.37L141.675 1111.37L146.107 1114.74L145.346 1121.44Z" fill="white"/>
<path d="M132.514 329.141L132.285 325.118L135.041 323.258L131.721 323.073L129.856 319.501L130.085 323.524L127.329 325.384L130.649 325.569L132.514 329.141Z" fill="#B5E6FB"/>
<path d="M25.074 317.992L26.3233 315.19L28.8373 314.894L26.6556 313.61L26.6406 310.542L25.3913 313.344L22.8773 313.641L25.059 314.925L25.074 317.992Z" fill="#B5E6FB"/>
<path d="M285.98 729.514L287.23 726.713L289.744 726.416L287.562 725.132L287.547 722.064L286.298 724.866L283.784 725.163L285.965 726.447L285.98 729.514Z" fill="#B5E6FB"/>
<path d="M19.5469 874.514L18.2976 871.713L15.7836 871.416L17.9652 870.132L17.9802 867.064L19.2295 869.866L21.7435 870.163L19.5619 871.447L19.5469 874.514Z" fill="#B5E6FB"/>
<path d="M19.9802 627.514L21.2295 624.713L23.7435 624.416L21.5619 623.132L21.5469 620.064L20.2976 622.866L17.7836 623.163L19.9652 624.447L19.9802 627.514Z" fill="#B5E6FB"/>
<path d="M232.514 121.141L232.285 117.118L235.041 115.258L231.721 115.073L229.856 111.501L230.085 115.524L227.329 117.384L230.649 117.569L232.514 121.141Z" fill="#B5E6FB"/>
<path d="M250.514 1403.14L250.285 1399.12L253.041 1397.26L249.721 1397.07L247.856 1393.5L248.085 1397.52L245.329 1399.38L248.649 1399.57L250.514 1403.14Z" fill="#B5E6FB"/>
<path d="M124.514 759.141L124.285 755.118L127.041 753.258L123.721 753.073L121.856 749.501L122.085 753.524L119.329 755.384L122.649 755.569L124.514 759.141Z" fill="#B5E6FB"/>
<path d="M13.9253 164.021L15.5168 160.319L18.8136 159.885L15.9254 158.237L15.8516 154.208L14.2601 157.91L10.9634 158.344L13.8515 159.992L13.9253 164.021Z" fill="#B5E6FB"/>
<path d="M13.9253 1342.46L15.5168 1338.76L18.8136 1338.32L15.9254 1336.68L15.8516 1332.65L14.2601 1336.35L10.9634 1336.78L13.8515 1338.43L13.9253 1342.46Z" fill="#B5E6FB"/>
<path d="M226.155 1258.86L224.499 1255.19L226.406 1252.46L223.24 1253.48L220.219 1250.81L221.875 1254.49L219.968 1257.21L223.134 1256.19L226.155 1258.86Z" fill="#B5E6FB"/>
<path d="M219.155 620.86L217.499 617.186L219.406 614.462L216.24 615.479L213.219 612.812L214.875 616.486L212.968 619.21L216.134 618.193L219.155 620.86Z" fill="#B5E6FB"/>
<path d="M275.132 10.6706L276.908 7.05361L280.223 6.78691L277.422 4.99531L277.551 0.967708L275.775 4.58473L272.46 4.85142L275.262 6.64303L275.132 10.6706Z" fill="#B5E6FB"/>
<path d="M27.3942 10.7791L25.6611 7.14117L27.5094 4.37701L24.3659 5.46114L21.2887 2.85935L23.0219 6.49728L21.1736 9.26144L24.317 8.17731L27.3942 10.7791Z" fill="#B5E6FB"/>
<path d="M27.3942 1195.22L25.6611 1191.58L27.5094 1188.81L24.3659 1189.9L21.2887 1187.3L23.0219 1190.94L21.1736 1193.7L24.317 1192.62L27.3942 1195.22Z" fill="#B5E6FB"/>
<path d="M211.274 872.8L209.54 869.162L211.389 866.398L208.245 867.482L205.168 864.88L206.901 868.518L205.053 871.282L208.196 870.198L211.274 872.8Z" fill="#B5E6FB"/>
</svg>
